:FULLY-SPECIFIED
:FORCE-ALL-JOINTS-BE-3DOF
:DEGREES
917
root 2.74801 16.2189 32.4386 2.36183 10.7726 362.329
lfemur -13.3922 -1.88631 1.35329
ltibia 27.2172 0 0
lfoot 2.64842 -44.1266 0
ltoes 19.4718 0 0
rfemur -16.9479 -2.08234 -8.32802
rtibia 39.0433 0 0
rfoot 10.6007 -13.616 0
rtoes -22.1152 0 0
lowerback -0.644191 0.16755 -2.821
upperback -0.786159 0.231486 -4.77723
thorax -0.438093 0.121125 -3.33306
lowerneck -7.1266 -5.28463 -1.39713
upperneck 4.21244 -7.30423 5.99495
head 2.91527 -3.45286 1.8381
lclavicle 1.26317e-14 -8.45789e-15 0
lhumerus -51.3547 -35.8035 107.952
lradius 59.029 0 0
lwrist 13.4672 0 0
lhand 37.8993 21.1492 0
lfingers 7.12502 0 0
lthumb 60.5874 33.9507 0
rclavicle 1.26317e-14 -8.45789e-15 0
rhumerus -60.5822 33.8729 -104.555
rradius 117.987 0 0
rwrist 3.34074 0 0
rhand 1.02266 -10.7588 0
rfingers 7.12502 0 0
rthumb 26.5565 -758.781 0
918
root 2.66499 16.1858 32.4864 2.73525 10.0182 362.472
lfemur -11.9801 -4.14701 2.52013
ltibia 23.9962 0 0
lfoot 5.82422 -47.1906 0
ltoes 24.1104 0 0
rfemur -17.0632 -1.22774 -8.61823
rtibia 38.1908 0 0
rfoot 10.2764 -12.3473 0
rtoes -29.8652 0 0
lowerback -1.09308 0.145609 -2.81687
upperback -0.909253 0.221121 -5.03661
thorax -0.311995 0.114924 -3.60301
lowerneck -7.14448 -4.99827 -1.25581
upperneck 4.16282 -6.93657 6.07513
head 2.88387 -3.26585 1.86002
lclavicle 1.11958e-14 -1.39517e-14 0
lhumerus -51.4616 -35.9108 107.689
lradius 59.0749 0 0
lwrist 13.8944 0 0
lhand 39.0908 22.3677 0
lfingers 7.12502 0 0
lthumb 61.6093 34.1207 0
rclavicle 1.11958e-14 -1.39517e-14 0
rhumerus -61.7831 34.929 -103.368
rradius 118.295 0 0
rwrist 4.2662 0 0
rhand 3.25842 -10.103 0
rfingers 7.12502 0 0
rthumb 28.6992 -757.834 0
919
root 2.58744 16.1548 32.531 3.08405 9.31345 362.605
lfemur -10.6612 -6.25866 3.61003
ltibia 20.9876 0 0
lfoot 8.79063 -50.0527 0
ltoes 28.4432 0 0
rfemur -17.1709 -0.429495 -8.8893
rtibia 37.3945 0 0
rfoot 9.97349 -11.1622 0
rtoes -37.1043 0 0
lowerback -1.51237 0.125115 -2.81302
upperback -1.02423 0.21144 -5.27889
thorax -0.194212 0.109131 -3.85516
lowerneck -7.16119 -4.73079 -1.1238
upperneck 4.11648 -6.59315 6.15003
head 2.85453 -3.09116 1.8805
lclavicle 9.85459e-15 -1.90833e-14 0
lhumerus -51.5615 -36.011 107.442
lradius 59.1177 0 0
lwrist 14.2935 0 0
lhand 40.2037 23.5058 0
lfingers 7.12502 0 0
lthumb 62.5638 34.2796 0
rclavicle 9.85459e-15 -1.90833e-14 0
rhumerus -62.9049 35.9155 -102.26
rradius 118.582 0 0
rwrist 5.13064 0 0
rhand 5.34678 -9.49053 0
rfingers 7.12502 0 0
rthumb 30.7007 -756.949 0
920
root 2.51624 16.1115 32.5629 3.29047 8.45195 362.944
lfemur -9.1504 -6.26693 3.48901
ltibia 18.8688 0 0
lfoot 6.26956 -49.4624 0
ltoes 26.0323 0 0
rfemur -17.7911 -0.753966 -9.2211
rtibia 37.8012 0 0
rfoot 8.44827 -10.6152 0
rtoes -38.5676 0 0
lowerback -1.7836 0.0305155 -2.78996
upperback -1.08509 0.0988776 -5.58408
thorax -0.113538 0.0510999 -4.19451
lowerneck -7.14182 -4.33795 -0.910595
upperneck 4.07882 -6.08182 6.10467
head 2.81078 -2.83624 1.85302
lclavicle 8.01202e-15 -1.60794e-14 0
lhumerus -51.8706 -36.3926 107.29
lradius 58.9105 0 0
lwrist 14.9011 0 0
lhand 40.8197 24.1377 0
lfingers 7.12502 0 0
lthumb 63.0586 34.1528 0
rclavicle 8.01202e-15 -1.60794e-14 0
rhumerus -61.7925 37.6572 -97.9036
rradius 117.972 0 0
rwrist 3.43261 0 0
rhand 8.09793 -9.64894 0
rfingers 7.12502 0 0
rthumb 33.291 -756.342 0
921
root 2.44002 16.0651 32.5971 3.51147 7.52965 363.307
lfemur -7.53295 -6.27579 3.35945
ltibia 16.6004 0 0
lfoot 3.57053 -48.8304 0
ltoes 23.4511 0 0
rfemur -18.4551 -1.10134 -9.57632
rtibia 38.2366 0 0
rfoot 6.81538 -10.0295 0
rtoes -40.1342 0 0
lowerback -2.07398 -0.0707616 -2.76527
upperback -1.15025 -0.0216303 -5.91081
thorax -0.0271684 -0.0110275 -4.5578
lowerneck -7.12108 -3.91737 -0.682339
upperneck 4.03851 -5.53439 6.0561
head 2.76393 -2.56332 1.82361
lclavicle 6.03938e-15 -1.28636e-14 0
lhumerus -52.2016 -36.8011 107.127
lradius 58.6887 0 0
lwrist 15.5515 0 0
lhand 41.4791 24.8142 0
lfingers 7.12502 0 0
lthumb 63.5883 34.017 0
rclavicle 6.03938e-15 -1.28636e-14 0
rhumerus -60.6016 39.5219 -93.2397
rradius 117.319 0 0
rwrist 1.61473 0 0
rhand 11.0433 -9.81853 0
rfingers 7.12502 0 0
rthumb 36.0642 -755.693 0
922
root 2.36128 16.0172 32.6324 3.73974 6.57694 363.682
lfemur -5.86217 -6.28494 3.22562
ltibia 14.2572 0 0
lfoot 0.782515 -48.1775 0
ltoes 20.7849 0 0
rfemur -19.141 -1.46017 -9.94325
rtibia 38.6863 0 0
rfoot 5.12866 -9.4246 0
rtoes -41.7524 0 0
lowerback -2.37392 -0.175377 -2.73976
upperback -1.21756 -0.146111 -6.24832
thorax 0.062048 -0.075203 -4.93308
lowerneck -7.09967 -3.48293 -0.446559
upperneck 3.99686 -4.96891 6.00594
head 2.71555 -2.2814 1.79322
lclavicle 4.00171e-15 -9.54165e-15 0
lhumerus -52.5434 -37.2231 106.958
lradius 58.4596 0 0
lwrist 16.2234 0 0
lhand 42.1604 25.513 0
lfingers 7.12502 0 0
lthumb 64.1355 33.8768 0
rclavicle 4.00171e-15 -9.54165e-15 0
rhumerus -59.3715 41.4481 -88.4221
rradius 116.645 0 0
rwrist -0.26309 0 0
rhand 14.0857 -9.99371 0
rfingers 7.12502 0 0
rthumb 38.9288 -755.021 0
